<?xml version="1.0" encoding="UTF-8" standalone="no"?>
<!DOCTYPE svg PUBLIC "-//W3C//DTD SVG 1.1//EN" "http://www.w3.org/Graphics/SVG/1.1/DTD/svg11.dtd">
<svg width="30.00" height="30.00" viewBox="0.00 0.00 250.00 250.00" xmlns="http://www.w3.org/2000/svg" xmlns:xlink="http://www.w3.org/1999/xlink">
<g stroke-linecap="round" id="Capa_1">
<path d="M17.90,226.52 C16.09,230.53 13.09,238.35 12.58,239.44 C12.01,240.64 10.75,242.67 9.95,243.85 C10.40,239.03 14.66,224.38 17.35,215.83 C20.24,207.33 25.54,193.45 28.43,186.48 C34.53,172.47 51.09,140.50 56.99,130.23 C65.02,116.79 82.06,90.06 90.91,77.05 C95.34,70.82 104.33,58.82 109.01,52.96 C112.59,48.61 124.56,35.15 129.50,29.96 C132.52,26.87 137.94,22.03 141.82,19.23 C143.42,18.00 144.56,18.04 146.76,19.05 C143.02,33.15 134.03,67.10 131.44,78.29 C128.13,94.03 123.11,127.42 121.39,141.07 C120.13,153.69 119.62,165.77 119.36,172.96 C119.23,180.90 119.04,198.83 119.36,204.51 C119.76,211.24 121.88,226.20 121.66,227.39 C116.70,219.35 113.56,213.98 106.99,200.76 C83.35,150.16 75.57,135.39 71.90,130.55 C67.84,125.41 62.41,121.77 59.59,120.42 C58.20,119.80 55.74,119.60 54.67,120.27 C54.24,120.55 53.65,121.30 52.90,122.53 C57.53,124.82 61.06,126.10 64.69,126.53 C71.12,127.28 82.61,127.65 93.93,127.47 C109.06,126.83 141.11,124.58 156.58,123.01 C174.45,120.76 195.07,115.58 198.20,114.38 C201.21,113.20 205.54,110.02 207.40,107.28 C209.36,104.33 211.36,97.73 211.81,95.66 C212.53,92.12 212.82,86.46 212.49,82.19 C212.05,77.20 211.02,68.83 210.74,67.41 C209.97,63.45 207.61,57.86 205.99,54.92 C203.63,50.71 200.55,46.99 197.97,45.37 C195.63,43.97 189.45,43.33 185.65,44.36 C180.23,45.89 167.83,53.77 161.52,59.25 C155.70,64.34 146.00,74.68 141.24,80.89 C136.54,87.04 128.72,99.56 125.35,106.68 C123.27,111.11 115.75,130.79 114.99,135.49 C114.34,139.77 113.97,156.51 114.96,163.48 C115.95,170.32 119.56,183.05 121.84,188.56 C125.07,196.34 132.59,208.39 136.86,212.66 C139.52,215.28 145.73,219.71 148.79,221.02 C152.28,222.45 157.57,223.24 161.76,222.95 C165.07,222.70 172.48,221.51 174.66,220.95 C177.80,220.12 183.96,217.27 187.49,215.18 C193.06,211.83 206.45,200.60 211.39,195.17 C215.50,190.59 225.05,174.68 227.86,169.16 C230.83,163.26 234.73,151.40 236.37,142.19 C237.75,134.40 237.73,126.49 236.76,116.28 C235.71,106.63 232.83,92.83 230.10,85.31 C227.77,78.95 220.81,64.24 216.50,57.69 C207.67,44.35 197.40,37.20 196.60,36.90 C196.22,36.76 195.33,36.53 193.96,36.21" fill="none" stroke="rgb(0, 0, 0)" stroke-width="25.13" stroke-opacity="1.00" stroke-linejoin="round"/>
</g>
</svg>
